<?xml version="1.0" encoding="utf-8" standalone="no"?>
<!DOCTYPE svg PUBLIC "-//W3C//DTD SVG 1.1//EN"
  "http://www.w3.org/Graphics/SVG/1.1/DTD/svg11.dtd">
<svg xmlns:xlink="http://www.w3.org/1999/xlink" width="604.8pt" height="319.423797pt" viewBox="0 0 604.8 319.423797" xmlns="http://www.w3.org/2000/svg" version="1.1">
 <metadata>
  <rdf:RDF xmlns:dc="http://purl.org/dc/elements/1.1/" xmlns:cc="http://creativecommons.org/ns#" xmlns:rdf="http://www.w3.org/1999/02/22-rdf-syntax-ns#">
   <cc:Work>
    <dc:type rdf:resource="http://purl.org/dc/dcmitype/StillImage"/>
    <dc:date>2026-07-07T16:28:49.977228</dc:date>
    <dc:format>image/svg+xml</dc:format>
    <dc:creator>
     <cc:Agent>
      <dc:title>Matplotlib v3.10.9, https://matplotlib.org/</dc:title>
     </cc:Agent>
    </dc:creator>
   </cc:Work>
  </rdf:RDF>
 </metadata>
 <defs>
  <style type="text/css">*{stroke-linejoin: round; stroke-linecap: butt}</style>
 </defs>
 <g id="figure_1">
  <g id="patch_1">
   <path d="M 0 319.423797 
L 604.8 319.423797 
L 604.8 0 
L 0 0 
z
" style="fill: #fcfcfb"/>
  </g>
  <g id="axes_1">
   <g id="patch_2">
    <path d="M 7.2 259.121037 
L 337.653778 259.121037 
L 337.653778 28.820128 
L 7.2 28.820128 
z
" clip-path="url(#p90047bcbe9)" style="fill: url(#h7422bf3114); stroke: #fcfcfb; stroke-width: 1.5; stroke-linejoin: miter"/>
   </g>
   <g id="patch_3">
    <path d="M 7.2 28.820128 
L 337.653778 28.820128 
L 337.653778 28.191749 
L 7.2 28.191749 
z
" clip-path="url(#p90047bcbe9)" style="fill: #2a78d6; stroke: #fcfcfb; stroke-width: 1.5; stroke-linejoin: miter"/>
   </g>
   <g id="patch_4">
    <path d="M 7.2 28.191749 
L 337.653778 28.191749 
L 337.653778 27.783303 
L 7.2 27.783303 
z
" clip-path="url(#p90047bcbe9)" style="fill: #2a78d6; stroke: #fcfcfb; stroke-width: 1.5; stroke-linejoin: miter"/>
   </g>
   <g id="patch_5">
    <path d="M 7.2 27.783303 
L 337.653778 27.783303 
L 337.653778 27.531951 
L 7.2 27.531951 
z
" clip-path="url(#p90047bcbe9)" style="fill: #2a78d6; stroke: #fcfcfb; stroke-width: 1.5; stroke-linejoin: miter"/>
   </g>
   <g id="patch_6">
    <path d="M 7.2 27.531951 
L 337.653778 27.531951 
L 337.653778 27.437694 
L 7.2 27.437694 
z
" clip-path="url(#p90047bcbe9)" style="fill: #2a78d6; stroke: #fcfcfb; stroke-width: 1.5; stroke-linejoin: miter"/>
   </g>
   <g id="patch_7">
    <path d="M 7.2 27.437694 
L 337.653778 27.437694 
L 337.653778 27.385329 
L 7.2 27.385329 
z
" clip-path="url(#p90047bcbe9)" style="fill: #2a78d6; stroke: #fcfcfb; stroke-width: 1.5; stroke-linejoin: miter"/>
   </g>
   <g id="patch_8">
    <path d="M 7.2 27.385329 
L 337.653778 27.385329 
L 337.653778 27.374856 
L 7.2 27.374856 
z
" clip-path="url(#p90047bcbe9)" style="fill: #2a78d6; stroke: #fcfcfb; stroke-width: 1.5; stroke-linejoin: miter"/>
   </g>
   <g id="patch_9">
    <path d="M 7.2 27.374856 
L 337.653778 27.374856 
L 337.653778 27.364383 
L 7.2 27.364383 
z
" clip-path="url(#p90047bcbe9)" style="fill: #2a78d6; stroke: #fcfcfb; stroke-width: 1.5; stroke-linejoin: miter"/>
   </g>
   <g id="patch_10">
    <path d="M 7.2 27.364383 
L 337.653778 27.364383 
L 337.653778 27.35391 
L 7.2 27.35391 
z
" clip-path="url(#p90047bcbe9)" style="fill: #2a78d6; stroke: #fcfcfb; stroke-width: 1.5; stroke-linejoin: miter"/>
   </g>
   <g id="patch_11">
    <path d="M 7.2 27.35391 
L 337.653778 27.35391 
L 337.653778 27.343437 
L 7.2 27.343437 
z
" clip-path="url(#p90047bcbe9)" style="fill: #2a78d6; stroke: #fcfcfb; stroke-width: 1.5; stroke-linejoin: miter"/>
   </g>
   <g id="patch_12">
    <path d="M 337.653778 259.121037 
L 522.374021 259.121037 
L 522.374021 108.056226 
L 337.653778 108.056226 
z
" clip-path="url(#p90047bcbe9)" style="fill: url(#h7422bf3114); stroke: #fcfcfb; stroke-width: 1.5; stroke-linejoin: miter"/>
   </g>
   <g id="patch_13">
    <path d="M 337.653778 108.056226 
L 522.374021 108.056226 
L 522.374021 76.842784 
L 337.653778 76.842784 
z
" clip-path="url(#p90047bcbe9)" style="fill: #2a78d6; stroke: #fcfcfb; stroke-width: 1.5; stroke-linejoin: miter"/>
   </g>
   <g id="patch_14">
    <path d="M 337.653778 76.842784 
L 522.374021 76.842784 
L 522.374021 45.741756 
L 337.653778 45.741756 
z
" clip-path="url(#p90047bcbe9)" style="fill: #2a78d6; stroke: #fcfcfb; stroke-width: 1.5; stroke-linejoin: miter"/>
   </g>
   <g id="patch_15">
    <path d="M 337.653778 45.741756 
L 522.374021 45.741756 
L 522.374021 34.069503 
L 337.653778 34.069503 
z
" clip-path="url(#p90047bcbe9)" style="fill: #2a78d6; stroke: #fcfcfb; stroke-width: 1.5; stroke-linejoin: miter"/>
   </g>
   <g id="patch_16">
    <path d="M 337.653778 34.069503 
L 522.374021 34.069503 
L 522.374021 29.591705 
L 337.653778 29.591705 
z
" clip-path="url(#p90047bcbe9)" style="fill: #2a78d6; stroke: #fcfcfb; stroke-width: 1.5; stroke-linejoin: miter"/>
   </g>
   <g id="patch_17">
    <path d="M 337.653778 29.591705 
L 522.374021 29.591705 
L 522.374021 27.343437 
L 337.653778 27.343437 
z
" clip-path="url(#p90047bcbe9)" style="fill: #2a78d6; stroke: #fcfcfb; stroke-width: 1.5; stroke-linejoin: miter"/>
   </g>
   <g id="patch_18">
    <path d="M 522.374021 259.121037 
L 559.359879 259.121037 
L 559.359879 102.388102 
L 522.374021 102.388102 
z
" clip-path="url(#p90047bcbe9)" style="fill: #2a78d6; stroke: #fcfcfb; stroke-width: 1.5; stroke-linejoin: miter"/>
   </g>
   <g id="patch_19">
    <path d="M 522.374021 102.388102 
L 559.359879 102.388102 
L 559.359879 53.07571 
L 522.374021 53.07571 
z
" clip-path="url(#p90047bcbe9)" style="fill: #2a78d6; stroke: #fcfcfb; stroke-width: 1.5; stroke-linejoin: miter"/>
   </g>
   <g id="patch_20">
    <path d="M 522.374021 53.07571 
L 559.359879 53.07571 
L 559.359879 39.320641 
L 522.374021 39.320641 
z
" clip-path="url(#p90047bcbe9)" style="fill: #2a78d6; stroke: #fcfcfb; stroke-width: 1.5; stroke-linejoin: miter"/>
   </g>
   <g id="patch_21">
    <path d="M 522.374021 39.320641 
L 559.359879 39.320641 
L 559.359879 28.4663 
L 522.374021 28.4663 
z
" clip-path="url(#p90047bcbe9)" style="fill: #2a78d6; stroke: #fcfcfb; stroke-width: 1.5; stroke-linejoin: miter"/>
   </g>
   <g id="patch_22">
    <path d="M 522.374021 28.4663 
L 559.359879 28.4663 
L 559.359879 27.343437 
L 522.374021 27.343437 
z
" clip-path="url(#p90047bcbe9)" style="fill: #2a78d6; stroke: #fcfcfb; stroke-width: 1.5; stroke-linejoin: miter"/>
   </g>
   <g id="patch_23">
    <path d="M 559.359879 259.121037 
L 593.956662 259.121037 
L 593.956662 135.379608 
L 559.359879 135.379608 
z
" clip-path="url(#p90047bcbe9)" style="fill: #2a78d6; stroke: #fcfcfb; stroke-width: 1.5; stroke-linejoin: miter"/>
   </g>
   <g id="patch_24">
    <path d="M 559.359879 135.379608 
L 593.956662 135.379608 
L 593.956662 72.858676 
L 559.359879 72.858676 
z
" clip-path="url(#p90047bcbe9)" style="fill: #2a78d6; stroke: #fcfcfb; stroke-width: 1.5; stroke-linejoin: miter"/>
   </g>
   <g id="patch_25">
    <path d="M 559.359879 72.858676 
L 593.956662 72.858676 
L 593.956662 29.14404 
L 559.359879 29.14404 
z
" clip-path="url(#p90047bcbe9)" style="fill: #2a78d6; stroke: #fcfcfb; stroke-width: 1.5; stroke-linejoin: miter"/>
   </g>
   <g id="patch_26">
    <path d="M 559.359879 29.14404 
L 593.956662 29.14404 
L 593.956662 27.343437 
L 559.359879 27.343437 
z
" clip-path="url(#p90047bcbe9)" style="fill: #2a78d6; stroke: #fcfcfb; stroke-width: 1.5; stroke-linejoin: miter"/>
   </g>
   <g id="patch_27">
    <path d="M 593.956662 259.121037 
L 596.435326 259.121037 
L 596.435326 27.343437 
L 593.956662 27.343437 
z
" clip-path="url(#p90047bcbe9)" style="fill: #2a78d6; stroke: #fcfcfb; stroke-width: 1.5; stroke-linejoin: miter"/>
   </g>
   <g id="patch_28">
    <path d="M 596.435326 259.121037 
L 597.226707 259.121037 
L 597.226707 123.553007 
L 596.435326 123.553007 
z
" clip-path="url(#p90047bcbe9)" style="fill: #2a78d6; stroke: #fcfcfb; stroke-width: 1.5; stroke-linejoin: miter"/>
   </g>
   <g id="patch_29">
    <path d="M 596.435326 123.553007 
L 597.226707 123.553007 
L 597.226707 53.582411 
L 596.435326 53.582411 
z
" clip-path="url(#p90047bcbe9)" style="fill: #2a78d6; stroke: #fcfcfb; stroke-width: 1.5; stroke-linejoin: miter"/>
   </g>
   <g id="patch_30">
    <path d="M 596.435326 53.582411 
L 597.226707 53.582411 
L 597.226707 27.343437 
L 596.435326 27.343437 
z
" clip-path="url(#p90047bcbe9)" style="fill: #2a78d6; stroke: #fcfcfb; stroke-width: 1.5; stroke-linejoin: miter"/>
   </g>
   <g id="patch_31">
    <path d="M 597.226707 259.121037 
L 597.480546 259.121037 
L 597.480546 40.977414 
L 597.226707 40.977414 
z
" clip-path="url(#p90047bcbe9)" style="fill: #2a78d6; stroke: #fcfcfb; stroke-width: 1.5; stroke-linejoin: miter"/>
   </g>
   <g id="patch_32">
    <path d="M 597.226707 40.977414 
L 597.480546 40.977414 
L 597.480546 27.343437 
L 597.226707 27.343437 
z
" clip-path="url(#p90047bcbe9)" style="fill: #2a78d6; stroke: #fcfcfb; stroke-width: 1.5; stroke-linejoin: miter"/>
   </g>
   <g id="patch_33">
    <path d="M 597.480546 259.121037 
L 597.6 259.121037 
L 597.6 27.343437 
L 597.480546 27.343437 
z
" clip-path="url(#p90047bcbe9)" style="fill: #2a78d6; stroke: #fcfcfb; stroke-width: 1.5; stroke-linejoin: miter"/>
   </g>
   <g id="text_1">
    <text style="font-size: 11px; font-family: 'Segoe UI', 'DejaVu Sans', sans-serif; fill: #ffffff" transform="translate(161.83767 140.626239)">BOR</text>
    <text style="font-size: 11px; font-family: 'Segoe UI', 'DejaVu Sans', sans-serif; fill: #ffffff" transform="translate(156.409858 152.928364)">21,990</text>
   </g>
   <g id="text_2">
    <text style="font-size: 7.5px; font-family: 'Segoe UI', 'DejaVu Sans', sans-serif; fill: #52514e" transform="translate(156.255014 275.103373)">20260529</text>
    <text style="font-size: 7.5px; font-family: 'Segoe UI', 'DejaVu Sans', sans-serif; fill: #52514e" transform="translate(161.506186 283.491186)">22,131</text>
   </g>
   <g id="text_3">
    <text style="font-size: 11px; font-family: 'Segoe UI', 'DejaVu Sans', sans-serif; fill: #ffffff" transform="translate(420.7189 180.244288)">LRV</text>
    <text style="font-size: 11px; font-family: 'Segoe UI', 'DejaVu Sans', sans-serif; fill: #ffffff" transform="translate(416.961712 192.546413)">8,063</text>
   </g>
   <g id="text_4">
    <text style="font-size: 8.528073px; font-family: 'Segoe UI', 'DejaVu Sans', sans-serif; fill: #ffffff" transform="translate(422.807678 89.856704)">LRV</text>
    <text style="font-size: 8.528073px; font-family: 'Segoe UI', 'DejaVu Sans', sans-serif; fill: #ffffff" transform="translate(419.894808 99.394288)">1,666</text>
   </g>
   <g id="text_5">
    <text style="font-size: 8.518968px; font-family: 'Segoe UI', 'DejaVu Sans', sans-serif; fill: #ffffff" transform="translate(422.463964 58.702238)">SHS</text>
    <text style="font-size: 8.518968px; font-family: 'Segoe UI', 'DejaVu Sans', sans-serif; fill: #ffffff" transform="translate(419.905612 68.229639)">1,660</text>
   </g>
   <g id="text_6">
    <text style="font-size: 6.945372px; font-family: 'Segoe UI', 'DejaVu Sans', sans-serif; fill: #ffffff" transform="translate(425.829313 37.79402)">AP</text>
    <text style="font-size: 6.945372px; font-family: 'Segoe UI', 'DejaVu Sans', sans-serif; fill: #ffffff" transform="translate(424.397916 45.56155)">623</text>
   </g>
   <g id="text_7">
    <text style="font-size: 7.5px; font-family: 'Segoe UI', 'DejaVu Sans', sans-serif; fill: #52514e" transform="translate(413.842025 275.103373)">20250418</text>
    <text style="font-size: 7.5px; font-family: 'Segoe UI', 'DejaVu Sans', sans-serif; fill: #52514e" transform="translate(419.093197 283.491186)">12,371</text>
   </g>
   <g id="text_8">
    <text style="font-size: 8.54173px; font-family: 'Segoe UI', 'DejaVu Sans', sans-serif; fill: #ffffff" transform="translate(535.720558 178.157617)">AP</text>
    <text style="font-size: 8.54173px; font-family: 'Segoe UI', 'DejaVu Sans', sans-serif; fill: #ffffff" transform="translate(530.731654 187.710474)">1,675</text>
   </g>
   <g id="text_9">
    <text style="font-size: 6.799697px; font-family: 'Segoe UI', 'DejaVu Sans', sans-serif; fill: #ffffff" transform="translate(534.840719 75.664586)">SHS</text>
    <text style="font-size: 6.799697px; font-family: 'Segoe UI', 'DejaVu Sans', sans-serif; fill: #ffffff" transform="translate(535.368758 83.269197)">527</text>
   </g>
   <g id="text_10">
    <text style="font-size: 7.5px; font-family: 'Segoe UI', 'DejaVu Sans', sans-serif; fill: #52514e" transform="translate(524.695075 275.103373)">20251126</text>
    <text style="font-size: 7.5px; font-family: 'Segoe UI', 'DejaVu Sans', sans-serif; fill: #52514e" transform="translate(531.967731 283.491186)">2,477</text>
   </g>
   <g id="text_11">
    <text style="font-size: 7.877086px; font-family: 'Segoe UI', 'DejaVu Sans', sans-serif; fill: #ffffff" transform="translate(569.677202 194.855443)">SHS</text>
    <text style="font-size: 7.877086px; font-family: 'Segoe UI', 'DejaVu Sans', sans-serif; fill: #ffffff" transform="translate(567.311615 203.664979)">1,237</text>
   </g>
   <g id="text_12">
    <text style="font-size: 6.948407px; font-family: 'Segoe UI', 'DejaVu Sans', sans-serif; fill: #ffffff" transform="translate(570.293421 102.00661)">MW</text>
    <text style="font-size: 6.948407px; font-family: 'Segoe UI', 'DejaVu Sans', sans-serif; fill: #ffffff" transform="translate(571.039832 109.777534)">625</text>
   </g>
   <g id="text_13">
    <text style="font-size: 7.5px; font-family: 'Segoe UI', 'DejaVu Sans', sans-serif; fill: #52514e" transform="translate(560.486395 275.103373)">20250114</text>
    <text style="font-size: 7.5px; font-family: 'Segoe UI', 'DejaVu Sans', sans-serif; fill: #52514e" transform="translate(567.759051 283.491186)">2,317</text>
   </g>
   <g id="text_14">
    <text style="font-size: 11px; font-family: 'Segoe UI', 'DejaVu Sans', sans-serif; text-anchor: start; fill: #0b0b0b" x="7.2" y="15.343437" transform="rotate(-0 7.2 15.343437)">Batch composition — batch × dictionary × process (area = records)</text>
   </g>
   <g id="legend_1">
    <g id="patch_34">
     <path d="M 14.4 295.421297 
L 30.4 295.421297 
L 30.4 289.821297 
L 14.4 289.821297 
z
" style="fill: #2a78d6"/>
    </g>
    <g id="text_15">
     <text style="font-size: 8px; font-family: 'Segoe UI', 'DejaVu Sans', sans-serif; text-anchor: start; fill: #0b0b0b" x="36.8" y="295.421297" transform="rotate(-0 36.8 295.421297)">human</text>
    </g>
    <g id="patch_35">
     <path d="M 14.4 307.183797 
L 30.4 307.183797 
L 30.4 301.583797 
L 14.4 301.583797 
z
" style="fill: url(#h7422bf3114); stroke: #fcfcfb; stroke-linejoin: miter"/>
    </g>
    <g id="text_16">
     <text style="font-size: 8px; font-family: 'Segoe UI', 'DejaVu Sans', sans-serif; text-anchor: start; fill: #0b0b0b" x="36.8" y="307.183797" transform="rotate(-0 36.8 307.183797)">bulk (machine batch)</text>
    </g>
   </g>
  </g>
 </g>
 <defs>
  <clipPath id="p90047bcbe9">
   <rect x="7.2" y="27.343437" width="590.4" height="231.7776"/>
  </clipPath>
 </defs>
 <defs>
  <pattern id="h7422bf3114" patternUnits="userSpaceOnUse" x="0" y="0" width="72" height="72">
   <rect x="0" y="0" width="73" height="73" fill="#1baf7a"/>
   <path d="M -36 36 
L 36 -36 
M -32 40 
L 40 -32 
M -28 44 
L 44 -28 
M -24 48 
L 48 -24 
M -20 52 
L 52 -20 
M -16 56 
L 56 -16 
M -12 60 
L 60 -12 
M -8 64 
L 64 -8 
M -4 68 
L 68 -4 
M 0 72 
L 72 0 
M 4 76 
L 76 4 
M 8 80 
L 80 8 
M 12 84 
L 84 12 
M 16 88 
L 88 16 
M 20 92 
L 92 20 
M 24 96 
L 96 24 
M 28 100 
L 100 28 
M 32 104 
L 104 32 
M 36 108 
L 108 36 
" style="fill: #fcfcfb; stroke: #fcfcfb; stroke-width: 1.0; stroke-linecap: butt; stroke-linejoin: miter"/>
  </pattern>
 </defs>
</svg>
