<?xml version="1.0" encoding="utf-8" standalone="no"?>
<!DOCTYPE svg PUBLIC "-//W3C//DTD SVG 1.1//EN"
  "http://www.w3.org/Graphics/SVG/1.1/DTD/svg11.dtd">
<svg xmlns:xlink="http://www.w3.org/1999/xlink" width="612pt" height="302.4pt" viewBox="0 0 612 302.4" xmlns="http://www.w3.org/2000/svg" version="1.1">
 <metadata>
  <rdf:RDF xmlns:dc="http://purl.org/dc/elements/1.1/" xmlns:cc="http://creativecommons.org/ns#" xmlns:rdf="http://www.w3.org/1999/02/22-rdf-syntax-ns#">
   <cc:Work>
    <dc:type rdf:resource="http://purl.org/dc/dcmitype/StillImage"/>
    <dc:date>2026-07-07T16:28:49.371319</dc:date>
    <dc:format>image/svg+xml</dc:format>
    <dc:creator>
     <cc:Agent>
      <dc:title>Matplotlib v3.10.9, https://matplotlib.org/</dc:title>
     </cc:Agent>
    </dc:creator>
   </cc:Work>
  </rdf:RDF>
 </metadata>
 <defs>
  <style type="text/css">*{stroke-linejoin: round; stroke-linecap: butt}</style>
 </defs>
 <g id="figure_1">
  <g id="patch_1">
   <path d="M 0 302.4 
L 612 302.4 
L 612 0 
L 0 0 
z
" style="fill: #fcfcfb"/>
  </g>
  <g id="axes_1">
   <g id="patch_2">
    <path d="M 41.11 261.88 
L 601.2 261.88 
L 601.2 31.44 
L 41.11 31.44 
z
" style="fill: #fcfcfb"/>
   </g>
   <g id="matplotlib.axis_1">
    <g id="xtick_1">
     <g id="line2d_1">
      <path d="M 41.11 261.88 
L 41.11 31.44 
" clip-path="url(#pbe179b1fc4)" style="fill: none; stroke: #e1e0d9; stroke-width: 0.6; stroke-linecap: square"/>
     </g>
     <g id="line2d_2">
      <defs>
       <path id="m3c7091f294" d="M 0 0 
L 0 3.5 
" style="stroke: #898781; stroke-width: 0.8"/>
      </defs>
      <g>
       <use xlink:href="#m3c7091f294" x="41.11" y="261.88" style="fill: #898781; stroke: #898781; stroke-width: 0.8"/>
      </g>
     </g>
     <g id="text_1">
      <text style="font-size: 10px; font-family: 'Segoe UI', 'DejaVu Sans', sans-serif; text-anchor: middle; fill: #898781" x="41.11" y="276.283125" transform="rotate(-0 41.11 276.283125)">0</text>
     </g>
    </g>
    <g id="xtick_2">
     <g id="line2d_3">
      <path d="M 137.540229 261.88 
L 137.540229 31.44 
" clip-path="url(#pbe179b1fc4)" style="fill: none; stroke: #e1e0d9; stroke-width: 0.6; stroke-linecap: square"/>
     </g>
     <g id="line2d_4">
      <g>
       <use xlink:href="#m3c7091f294" x="137.540229" y="261.88" style="fill: #898781; stroke: #898781; stroke-width: 0.8"/>
      </g>
     </g>
     <g id="text_2">
      <text style="font-size: 10px; font-family: 'Segoe UI', 'DejaVu Sans', sans-serif; text-anchor: middle; fill: #898781" x="137.540229" y="276.283125" transform="rotate(-0 137.540229 276.283125)">200</text>
     </g>
    </g>
    <g id="xtick_3">
     <g id="line2d_5">
      <path d="M 233.970458 261.88 
L 233.970458 31.44 
" clip-path="url(#pbe179b1fc4)" style="fill: none; stroke: #e1e0d9; stroke-width: 0.6; stroke-linecap: square"/>
     </g>
     <g id="line2d_6">
      <g>
       <use xlink:href="#m3c7091f294" x="233.970458" y="261.88" style="fill: #898781; stroke: #898781; stroke-width: 0.8"/>
      </g>
     </g>
     <g id="text_3">
      <text style="font-size: 10px; font-family: 'Segoe UI', 'DejaVu Sans', sans-serif; text-anchor: middle; fill: #898781" x="233.970458" y="276.283125" transform="rotate(-0 233.970458 276.283125)">400</text>
     </g>
    </g>
    <g id="xtick_4">
     <g id="line2d_7">
      <path d="M 330.400688 261.88 
L 330.400688 31.44 
" clip-path="url(#pbe179b1fc4)" style="fill: none; stroke: #e1e0d9; stroke-width: 0.6; stroke-linecap: square"/>
     </g>
     <g id="line2d_8">
      <g>
       <use xlink:href="#m3c7091f294" x="330.400688" y="261.88" style="fill: #898781; stroke: #898781; stroke-width: 0.8"/>
      </g>
     </g>
     <g id="text_4">
      <text style="font-size: 10px; font-family: 'Segoe UI', 'DejaVu Sans', sans-serif; text-anchor: middle; fill: #898781" x="330.400688" y="276.283125" transform="rotate(-0 330.400688 276.283125)">600</text>
     </g>
    </g>
    <g id="xtick_5">
     <g id="line2d_9">
      <path d="M 426.830917 261.88 
L 426.830917 31.44 
" clip-path="url(#pbe179b1fc4)" style="fill: none; stroke: #e1e0d9; stroke-width: 0.6; stroke-linecap: square"/>
     </g>
     <g id="line2d_10">
      <g>
       <use xlink:href="#m3c7091f294" x="426.830917" y="261.88" style="fill: #898781; stroke: #898781; stroke-width: 0.8"/>
      </g>
     </g>
     <g id="text_5">
      <text style="font-size: 10px; font-family: 'Segoe UI', 'DejaVu Sans', sans-serif; text-anchor: middle; fill: #898781" x="426.830917" y="276.283125" transform="rotate(-0 426.830917 276.283125)">800</text>
     </g>
    </g>
    <g id="xtick_6">
     <g id="line2d_11">
      <path d="M 523.261146 261.88 
L 523.261146 31.44 
" clip-path="url(#pbe179b1fc4)" style="fill: none; stroke: #e1e0d9; stroke-width: 0.6; stroke-linecap: square"/>
     </g>
     <g id="line2d_12">
      <g>
       <use xlink:href="#m3c7091f294" x="523.261146" y="261.88" style="fill: #898781; stroke: #898781; stroke-width: 0.8"/>
      </g>
     </g>
     <g id="text_6">
      <text style="font-size: 10px; font-family: 'Segoe UI', 'DejaVu Sans', sans-serif; text-anchor: middle; fill: #898781" x="523.261146" y="276.283125" transform="rotate(-0 523.261146 276.283125)">1000</text>
     </g>
    </g>
    <g id="text_7">
     <text style="font-size: 9px; font-family: 'Segoe UI', 'DejaVu Sans', sans-serif; text-anchor: middle; fill: #52514e" x="321.155" y="289.245938" transform="rotate(-0 321.155 289.245938)">correction records per 1,000 entries</text>
    </g>
   </g>
   <g id="matplotlib.axis_2">
    <g id="ytick_1">
     <g id="line2d_13">
      <defs>
       <path id="m675331e24e" d="M 0 0 
L -3.5 0 
" style="stroke: #898781; stroke-width: 0.8"/>
      </defs>
      <g>
       <use xlink:href="#m675331e24e" x="41.11" y="46.356555" style="fill: #898781; stroke: #898781; stroke-width: 0.8"/>
      </g>
     </g>
     <g id="text_8">
      <text style="font-size: 8px; font-family: 'Segoe UI', 'DejaVu Sans', sans-serif; text-anchor: end; fill: #898781" x="34.11" y="49.317805" transform="rotate(-0 34.11 49.317805)">BOR</text>
     </g>
    </g>
    <g id="ytick_2">
     <g id="line2d_14">
      <g>
       <use xlink:href="#m675331e24e" x="41.11" y="60.685619" style="fill: #898781; stroke: #898781; stroke-width: 0.8"/>
      </g>
     </g>
     <g id="text_9">
      <text style="font-size: 8px; font-family: 'Segoe UI', 'DejaVu Sans', sans-serif; text-anchor: end; fill: #898781" x="34.11" y="63.646869" transform="rotate(-0 34.11 63.646869)">LRV</text>
     </g>
    </g>
    <g id="ytick_3">
     <g id="line2d_15">
      <g>
       <use xlink:href="#m675331e24e" x="41.11" y="75.014682" style="fill: #898781; stroke: #898781; stroke-width: 0.8"/>
      </g>
     </g>
     <g id="text_10">
      <text style="font-size: 8px; font-family: 'Segoe UI', 'DejaVu Sans', sans-serif; text-anchor: end; fill: #898781" x="34.11" y="77.975932" transform="rotate(-0 34.11 77.975932)">SHS</text>
     </g>
    </g>
    <g id="ytick_4">
     <g id="line2d_16">
      <g>
       <use xlink:href="#m675331e24e" x="41.11" y="89.343746" style="fill: #898781; stroke: #898781; stroke-width: 0.8"/>
      </g>
     </g>
     <g id="text_11">
      <text style="font-size: 8px; font-family: 'Segoe UI', 'DejaVu Sans', sans-serif; text-anchor: end; fill: #898781" x="34.11" y="92.304996" transform="rotate(-0 34.11 92.304996)">AP</text>
     </g>
    </g>
    <g id="ytick_5">
     <g id="line2d_17">
      <g>
       <use xlink:href="#m675331e24e" x="41.11" y="103.672809" style="fill: #898781; stroke: #898781; stroke-width: 0.8"/>
      </g>
     </g>
     <g id="text_12">
      <text style="font-size: 8px; font-family: 'Segoe UI', 'DejaVu Sans', sans-serif; text-anchor: end; fill: #898781" x="34.11" y="106.634059" transform="rotate(-0 34.11 106.634059)">GRA</text>
     </g>
    </g>
    <g id="ytick_6">
     <g id="line2d_18">
      <g>
       <use xlink:href="#m675331e24e" x="41.11" y="118.001873" style="fill: #898781; stroke: #898781; stroke-width: 0.8"/>
      </g>
     </g>
     <g id="text_13">
      <text style="font-size: 8px; font-family: 'Segoe UI', 'DejaVu Sans', sans-serif; text-anchor: end; fill: #898781" x="34.11" y="120.963123" transform="rotate(-0 34.11 120.963123)">BOP</text>
     </g>
    </g>
    <g id="ytick_7">
     <g id="line2d_19">
      <g>
       <use xlink:href="#m675331e24e" x="41.11" y="132.330936" style="fill: #898781; stroke: #898781; stroke-width: 0.8"/>
      </g>
     </g>
     <g id="text_14">
      <text style="font-size: 8px; font-family: 'Segoe UI', 'DejaVu Sans', sans-serif; text-anchor: end; fill: #898781" x="34.11" y="135.292186" transform="rotate(-0 34.11 135.292186)">MW</text>
     </g>
    </g>
    <g id="ytick_8">
     <g id="line2d_20">
      <g>
       <use xlink:href="#m675331e24e" x="41.11" y="146.66" style="fill: #898781; stroke: #898781; stroke-width: 0.8"/>
      </g>
     </g>
     <g id="text_15">
      <text style="font-size: 8px; font-family: 'Segoe UI', 'DejaVu Sans', sans-serif; text-anchor: end; fill: #898781" x="34.11" y="149.62125" transform="rotate(-0 34.11 149.62125)">AP90</text>
     </g>
    </g>
    <g id="ytick_9">
     <g id="line2d_21">
      <g>
       <use xlink:href="#m675331e24e" x="41.11" y="160.989064" style="fill: #898781; stroke: #898781; stroke-width: 0.8"/>
      </g>
     </g>
     <g id="text_16">
      <text style="font-size: 8px; font-family: 'Segoe UI', 'DejaVu Sans', sans-serif; text-anchor: end; fill: #898781" x="34.11" y="163.950314" transform="rotate(-0 34.11 163.950314)">KRM</text>
     </g>
    </g>
    <g id="ytick_10">
     <g id="line2d_22">
      <g>
       <use xlink:href="#m675331e24e" x="41.11" y="175.318127" style="fill: #898781; stroke: #898781; stroke-width: 0.8"/>
      </g>
     </g>
     <g id="text_17">
      <text style="font-size: 8px; font-family: 'Segoe UI', 'DejaVu Sans', sans-serif; text-anchor: end; fill: #898781" x="34.11" y="178.279377" transform="rotate(-0 34.11 178.279377)">MW72</text>
     </g>
    </g>
    <g id="ytick_11">
     <g id="line2d_23">
      <g>
       <use xlink:href="#m675331e24e" x="41.11" y="189.647191" style="fill: #898781; stroke: #898781; stroke-width: 0.8"/>
      </g>
     </g>
     <g id="text_18">
      <text style="font-size: 8px; font-family: 'Segoe UI', 'DejaVu Sans', sans-serif; text-anchor: end; fill: #898781" x="34.11" y="192.608441" transform="rotate(-0 34.11 192.608441)">SKD</text>
     </g>
    </g>
    <g id="ytick_12">
     <g id="line2d_24">
      <g>
       <use xlink:href="#m675331e24e" x="41.11" y="203.976254" style="fill: #898781; stroke: #898781; stroke-width: 0.8"/>
      </g>
     </g>
     <g id="text_19">
      <text style="font-size: 8px; font-family: 'Segoe UI', 'DejaVu Sans', sans-serif; text-anchor: end; fill: #898781" x="34.11" y="206.937504" transform="rotate(-0 34.11 206.937504)">STC</text>
     </g>
    </g>
    <g id="ytick_13">
     <g id="line2d_25">
      <g>
       <use xlink:href="#m675331e24e" x="41.11" y="218.305318" style="fill: #898781; stroke: #898781; stroke-width: 0.8"/>
      </g>
     </g>
     <g id="text_20">
      <text style="font-size: 8px; font-family: 'Segoe UI', 'DejaVu Sans', sans-serif; text-anchor: end; fill: #898781" x="34.11" y="221.266568" transform="rotate(-0 34.11 221.266568)">PW</text>
     </g>
    </g>
    <g id="ytick_14">
     <g id="line2d_26">
      <g>
       <use xlink:href="#m675331e24e" x="41.11" y="232.634381" style="fill: #898781; stroke: #898781; stroke-width: 0.8"/>
      </g>
     </g>
     <g id="text_21">
      <text style="font-size: 8px; font-family: 'Segoe UI', 'DejaVu Sans', sans-serif; text-anchor: end; fill: #898781" x="34.11" y="235.595631" transform="rotate(-0 34.11 235.595631)">INM</text>
     </g>
    </g>
    <g id="ytick_15">
     <g id="line2d_27">
      <g>
       <use xlink:href="#m675331e24e" x="41.11" y="246.963445" style="fill: #898781; stroke: #898781; stroke-width: 0.8"/>
      </g>
     </g>
     <g id="text_22">
      <text style="font-size: 8px; font-family: 'Segoe UI', 'DejaVu Sans', sans-serif; text-anchor: end; fill: #898781" x="34.11" y="249.924695" transform="rotate(-0 34.11 249.924695)">BUR</text>
     </g>
    </g>
   </g>
   <g id="patch_3">
    <path d="M 41.11 261.88 
L 41.11 31.44 
" style="fill: none; stroke: #c3c2b7; stroke-width: 0.8; stroke-linejoin: miter; stroke-linecap: square"/>
   </g>
   <g id="patch_4">
    <path d="M 41.11 261.88 
L 601.2 261.88 
" style="fill: none; stroke: #c3c2b7; stroke-width: 0.8; stroke-linejoin: miter; stroke-linecap: square"/>
   </g>
   <g id="patch_5">
    <path d="M 41.11 41.914545 
L 41.11 41.914545 
L 41.11 50.798565 
L 41.11 50.798565 
z
" clip-path="url(#pbe179b1fc4)" style="fill: #2a78d6"/>
   </g>
   <g id="patch_6">
    <path d="M 41.11 56.243609 
L 61.274439 56.243609 
L 61.274439 65.127628 
L 41.11 65.127628 
z
" clip-path="url(#pbe179b1fc4)" style="fill: #2a78d6"/>
   </g>
   <g id="patch_7">
    <path d="M 41.11 70.572673 
L 76.309092 70.572673 
L 76.309092 79.456692 
L 41.11 79.456692 
z
" clip-path="url(#pbe179b1fc4)" style="fill: #2a78d6"/>
   </g>
   <g id="patch_8">
    <path d="M 41.11 84.901736 
L 53.311991 84.901736 
L 53.311991 93.785756 
L 41.11 93.785756 
z
" clip-path="url(#pbe179b1fc4)" style="fill: #2a78d6"/>
   </g>
   <g id="patch_9">
    <path d="M 41.11 99.2308 
L 43.372735 99.2308 
L 43.372735 108.114819 
L 41.11 108.114819 
z
" clip-path="url(#pbe179b1fc4)" style="fill: #2a78d6"/>
   </g>
   <g id="patch_10">
    <path d="M 41.11 113.559863 
L 43.208415 113.559863 
L 43.208415 122.443883 
L 41.11 122.443883 
z
" clip-path="url(#pbe179b1fc4)" style="fill: #2a78d6"/>
   </g>
   <g id="patch_11">
    <path d="M 41.11 127.888927 
L 43.107429 127.888927 
L 43.107429 136.772946 
L 41.11 136.772946 
z
" clip-path="url(#pbe179b1fc4)" style="fill: #2a78d6"/>
   </g>
   <g id="patch_12">
    <path d="M 41.11 142.21799 
L 43.031306 142.21799 
L 43.031306 151.10201 
L 41.11 151.10201 
z
" clip-path="url(#pbe179b1fc4)" style="fill: #2a78d6"/>
   </g>
   <g id="patch_13">
    <path d="M 41.11 156.547054 
L 42.279702 156.547054 
L 42.279702 165.431073 
L 41.11 165.431073 
z
" clip-path="url(#pbe179b1fc4)" style="fill: #2a78d6"/>
   </g>
   <g id="patch_14">
    <path d="M 41.11 170.876117 
L 41.318912 170.876117 
L 41.318912 179.760137 
L 41.11 179.760137 
z
" clip-path="url(#pbe179b1fc4)" style="fill: #2a78d6"/>
   </g>
   <g id="patch_15">
    <path d="M 41.11 185.205181 
L 41.291383 185.205181 
L 41.291383 194.0892 
L 41.11 194.0892 
z
" clip-path="url(#pbe179b1fc4)" style="fill: #2a78d6"/>
   </g>
   <g id="patch_16">
    <path d="M 41.11 199.534244 
L 41.266963 199.534244 
L 41.266963 208.418264 
L 41.11 208.418264 
z
" clip-path="url(#pbe179b1fc4)" style="fill: #2a78d6"/>
   </g>
   <g id="patch_17">
    <path d="M 41.11 213.863308 
L 41.160885 213.863308 
L 41.160885 222.747327 
L 41.11 222.747327 
z
" clip-path="url(#pbe179b1fc4)" style="fill: #2a78d6"/>
   </g>
   <g id="patch_18">
    <path d="M 41.11 228.192372 
L 41.148124 228.192372 
L 41.148124 237.076391 
L 41.11 237.076391 
z
" clip-path="url(#pbe179b1fc4)" style="fill: #2a78d6"/>
   </g>
   <g id="patch_19">
    <path d="M 41.11 242.521435 
L 41.134381 242.521435 
L 41.134381 251.405455 
L 41.11 251.405455 
z
" clip-path="url(#pbe179b1fc4)" style="fill: #2a78d6"/>
   </g>
   <g id="patch_20">
    <path d="M 41.11 41.914545 
L 471.948462 41.914545 
L 471.948462 50.798565 
L 41.11 50.798565 
z
" clip-path="url(#pbe179b1fc4)" style="fill: url(#h5b9070fbea); stroke: #fcfcfb; stroke-width: 0.8; stroke-linejoin: miter"/>
   </g>
   <g id="patch_21">
    <path d="M 61.274439 56.243609 
L 134.019798 56.243609 
L 134.019798 65.127628 
L 61.274439 65.127628 
z
" clip-path="url(#pbe179b1fc4)" style="fill: url(#h5b9070fbea); stroke: #fcfcfb; stroke-width: 0.8; stroke-linejoin: miter"/>
   </g>
   <g id="patch_22">
    <path d="M 76.309092 70.572673 
L 76.309092 70.572673 
L 76.309092 79.456692 
L 76.309092 79.456692 
z
" clip-path="url(#pbe179b1fc4)" style="fill: url(#h5b9070fbea); stroke: #fcfcfb; stroke-width: 0.8; stroke-linejoin: miter"/>
   </g>
   <g id="patch_23">
    <path d="M 53.311991 84.901736 
L 53.311991 84.901736 
L 53.311991 93.785756 
L 53.311991 93.785756 
z
" clip-path="url(#pbe179b1fc4)" style="fill: url(#h5b9070fbea); stroke: #fcfcfb; stroke-width: 0.8; stroke-linejoin: miter"/>
   </g>
   <g id="patch_24">
    <path d="M 43.372735 99.2308 
L 43.372735 99.2308 
L 43.372735 108.114819 
L 43.372735 108.114819 
z
" clip-path="url(#pbe179b1fc4)" style="fill: url(#h5b9070fbea); stroke: #fcfcfb; stroke-width: 0.8; stroke-linejoin: miter"/>
   </g>
   <g id="patch_25">
    <path d="M 43.208415 113.559863 
L 43.208415 113.559863 
L 43.208415 122.443883 
L 43.208415 122.443883 
z
" clip-path="url(#pbe179b1fc4)" style="fill: url(#h5b9070fbea); stroke: #fcfcfb; stroke-width: 0.8; stroke-linejoin: miter"/>
   </g>
   <g id="patch_26">
    <path d="M 43.107429 127.888927 
L 43.107429 127.888927 
L 43.107429 136.772946 
L 43.107429 136.772946 
z
" clip-path="url(#pbe179b1fc4)" style="fill: url(#h5b9070fbea); stroke: #fcfcfb; stroke-width: 0.8; stroke-linejoin: miter"/>
   </g>
   <g id="patch_27">
    <path d="M 43.031306 142.21799 
L 43.031306 142.21799 
L 43.031306 151.10201 
L 43.031306 151.10201 
z
" clip-path="url(#pbe179b1fc4)" style="fill: url(#h5b9070fbea); stroke: #fcfcfb; stroke-width: 0.8; stroke-linejoin: miter"/>
   </g>
   <g id="patch_28">
    <path d="M 42.279702 156.547054 
L 42.279702 156.547054 
L 42.279702 165.431073 
L 42.279702 165.431073 
z
" clip-path="url(#pbe179b1fc4)" style="fill: url(#h5b9070fbea); stroke: #fcfcfb; stroke-width: 0.8; stroke-linejoin: miter"/>
   </g>
   <g id="patch_29">
    <path d="M 41.318912 170.876117 
L 41.318912 170.876117 
L 41.318912 179.760137 
L 41.318912 179.760137 
z
" clip-path="url(#pbe179b1fc4)" style="fill: url(#h5b9070fbea); stroke: #fcfcfb; stroke-width: 0.8; stroke-linejoin: miter"/>
   </g>
   <g id="patch_30">
    <path d="M 41.291383 185.205181 
L 41.291383 185.205181 
L 41.291383 194.0892 
L 41.291383 194.0892 
z
" clip-path="url(#pbe179b1fc4)" style="fill: url(#h5b9070fbea); stroke: #fcfcfb; stroke-width: 0.8; stroke-linejoin: miter"/>
   </g>
   <g id="patch_31">
    <path d="M 41.266963 199.534244 
L 41.266963 199.534244 
L 41.266963 208.418264 
L 41.266963 208.418264 
z
" clip-path="url(#pbe179b1fc4)" style="fill: url(#h5b9070fbea); stroke: #fcfcfb; stroke-width: 0.8; stroke-linejoin: miter"/>
   </g>
   <g id="patch_32">
    <path d="M 41.160885 213.863308 
L 41.160885 213.863308 
L 41.160885 222.747327 
L 41.160885 222.747327 
z
" clip-path="url(#pbe179b1fc4)" style="fill: url(#h5b9070fbea); stroke: #fcfcfb; stroke-width: 0.8; stroke-linejoin: miter"/>
   </g>
   <g id="patch_33">
    <path d="M 41.148124 228.192372 
L 41.148124 228.192372 
L 41.148124 237.076391 
L 41.148124 237.076391 
z
" clip-path="url(#pbe179b1fc4)" style="fill: url(#h5b9070fbea); stroke: #fcfcfb; stroke-width: 0.8; stroke-linejoin: miter"/>
   </g>
   <g id="patch_34">
    <path d="M 41.134381 242.521435 
L 41.134381 242.521435 
L 41.134381 251.405455 
L 41.134381 251.405455 
z
" clip-path="url(#pbe179b1fc4)" style="fill: url(#h5b9070fbea); stroke: #fcfcfb; stroke-width: 0.8; stroke-linejoin: miter"/>
   </g>
   <g id="text_23">
    <text style="font-size: 7.5px; font-family: 'Segoe UI', 'DejaVu Sans', sans-serif; text-anchor: start; fill: #52514e" x="477.734275" y="48.270227" transform="rotate(-0 477.734275 48.270227)">893.6  (21,990 rec)</text>
   </g>
   <g id="text_24">
    <text style="font-size: 7.5px; font-family: 'Segoe UI', 'DejaVu Sans', sans-serif; text-anchor: start; fill: #52514e" x="139.805611" y="62.599291" transform="rotate(-0 139.805611 62.599291)">192.7  (10,298 rec)</text>
   </g>
   <g id="text_25">
    <text style="font-size: 7.5px; font-family: 'Segoe UI', 'DejaVu Sans', sans-serif; text-anchor: start; fill: #52514e" x="82.094905" y="76.928354" transform="rotate(-0 82.094905 76.928354)">73.0  (3,455 rec)</text>
   </g>
   <g id="text_26">
    <text style="font-size: 7.5px; font-family: 'Segoe UI', 'DejaVu Sans', sans-serif; text-anchor: start; fill: #52514e" x="59.097805" y="91.257418" transform="rotate(-0 59.097805 91.257418)">25.3  (2,299 rec)</text>
   </g>
   <g id="text_27">
    <text style="font-size: 7.5px; font-family: 'Segoe UI', 'DejaVu Sans', sans-serif; text-anchor: start; fill: #52514e" x="49.158549" y="105.586481" transform="rotate(-0 49.158549 105.586481)">4.7  (60 rec)</text>
   </g>
   <g id="text_28">
    <text style="font-size: 7.5px; font-family: 'Segoe UI', 'DejaVu Sans', sans-serif; text-anchor: start; fill: #52514e" x="48.994229" y="119.915545" transform="rotate(-0 48.994229 119.915545)">4.4  (39 rec)</text>
   </g>
   <g id="text_29">
    <text style="font-size: 7.5px; font-family: 'Segoe UI', 'DejaVu Sans', sans-serif; text-anchor: start; fill: #52514e" x="48.893243" y="134.244608" transform="rotate(-0 48.893243 134.244608)">4.1  (1,187 rec)</text>
   </g>
   <g id="text_30">
    <text style="font-size: 7.5px; font-family: 'Segoe UI', 'DejaVu Sans', sans-serif; text-anchor: start; fill: #52514e" x="48.81712" y="148.573672" transform="rotate(-0 48.81712 148.573672)">4.0  (139 rec)</text>
   </g>
   <g id="text_31">
    <text style="font-size: 7.5px; font-family: 'Segoe UI', 'DejaVu Sans', sans-serif; text-anchor: start; fill: #52514e" x="48.065516" y="162.902735" transform="rotate(-0 48.065516 162.902735)">2.4  (5 rec)</text>
   </g>
   <g id="text_32">
    <text style="font-size: 7.5px; font-family: 'Segoe UI', 'DejaVu Sans', sans-serif; text-anchor: start; fill: #52514e" x="47.104726" y="177.231799" transform="rotate(-0 47.104726 177.231799)">0.4  (24 rec)</text>
   </g>
   <g id="text_33">
    <text style="font-size: 7.5px; font-family: 'Segoe UI', 'DejaVu Sans', sans-serif; text-anchor: start; fill: #52514e" x="47.077197" y="191.560863" transform="rotate(-0 47.077197 191.560863)">0.4  (16 rec)</text>
   </g>
   <g id="text_34">
    <text style="font-size: 7.5px; font-family: 'Segoe UI', 'DejaVu Sans', sans-serif; text-anchor: start; fill: #52514e" x="47.052777" y="205.889926" transform="rotate(-0 47.052777 205.889926)">0.3  (8 rec)</text>
   </g>
   <g id="text_35">
    <text style="font-size: 7.5px; font-family: 'Segoe UI', 'DejaVu Sans', sans-serif; text-anchor: start; fill: #52514e" x="46.946699" y="220.21899" transform="rotate(-0 46.946699 220.21899)">0.1  (18 rec)</text>
   </g>
   <g id="text_36">
    <text style="font-size: 7.5px; font-family: 'Segoe UI', 'DejaVu Sans', sans-serif; text-anchor: start; fill: #52514e" x="46.933938" y="234.548053" transform="rotate(-0 46.933938 234.548053)">0.1  (1 rec)</text>
   </g>
   <g id="text_37">
    <text style="font-size: 7.5px; font-family: 'Segoe UI', 'DejaVu Sans', sans-serif; text-anchor: start; fill: #52514e" x="46.920194" y="248.877117" transform="rotate(-0 46.920194 248.877117)">0.1  (1 rec)</text>
   </g>
   <g id="text_38">
    <text style="font-size: 11px; font-family: 'Segoe UI', 'DejaVu Sans', sans-serif; text-anchor: start; fill: #0b0b0b" x="41.11" y="19.44" transform="rotate(-0 41.11 19.44)">Correction density per dictionary (entries from csl-orig)</text>
   </g>
   <g id="legend_1">
    <g id="patch_35">
     <path d="M 497.925 241.0775 
L 513.925 241.0775 
L 513.925 235.4775 
L 497.925 235.4775 
z
" style="fill: #2a78d6"/>
    </g>
    <g id="text_39">
     <text style="font-size: 8px; font-family: 'Segoe UI', 'DejaVu Sans', sans-serif; text-anchor: start; fill: #0b0b0b" x="520.325" y="241.0775" transform="rotate(-0 520.325 241.0775)">human</text>
    </g>
    <g id="patch_36">
     <path d="M 497.925 252.84 
L 513.925 252.84 
L 513.925 247.24 
L 497.925 247.24 
z
" style="fill: url(#h5b9070fbea); stroke: #fcfcfb; stroke-width: 0.8; stroke-linejoin: miter"/>
    </g>
    <g id="text_40">
     <text style="font-size: 8px; font-family: 'Segoe UI', 'DejaVu Sans', sans-serif; text-anchor: start; fill: #0b0b0b" x="520.325" y="252.84" transform="rotate(-0 520.325 252.84)">bulk (machine batch)</text>
    </g>
   </g>
  </g>
 </g>
 <defs>
  <clipPath id="pbe179b1fc4">
   <rect x="41.11" y="31.44" width="560.09" height="230.44"/>
  </clipPath>
 </defs>
 <defs>
  <pattern id="h5b9070fbea" patternUnits="userSpaceOnUse" x="0" y="0" width="72" height="72">
   <rect x="0" y="0" width="73" height="73" fill="#1baf7a"/>
   <path d="M -36 36 
L 36 -36 
M -32 40 
L 40 -32 
M -28 44 
L 44 -28 
M -24 48 
L 48 -24 
M -20 52 
L 52 -20 
M -16 56 
L 56 -16 
M -12 60 
L 60 -12 
M -8 64 
L 64 -8 
M -4 68 
L 68 -4 
M 0 72 
L 72 0 
M 4 76 
L 76 4 
M 8 80 
L 80 8 
M 12 84 
L 84 12 
M 16 88 
L 88 16 
M 20 92 
L 92 20 
M 24 96 
L 96 24 
M 28 100 
L 100 28 
M 32 104 
L 104 32 
M 36 108 
L 108 36 
" style="fill: #fcfcfb; stroke: #fcfcfb; stroke-width: 1.0; stroke-linecap: butt; stroke-linejoin: miter"/>
  </pattern>
 </defs>
</svg>
